<?xml version="1.0" encoding="utf-8" standalone="yes"?>
<!DOCTYPE svg PUBLIC "-//W3C//DTD SVG 1.1//EN" "http://www.w3.org/Graphics/SVG/1.1/DTD/svg11.dtd">
<svg version="1.1" xmlns="http://www.w3.org/2000/svg" xmlns:xlink="http://www.w3.org/1999/xlink" width="924" height="492" viewBox="0 0 924 492" style="fill:none; stroke:none; fill-rule:evenodd; clip-rule:evenodd; stroke-linecap:round; stroke-linejoin:round; stroke-miterlimit:1.5;">
<style class="text-font-style fontImports" data-font-family="Roboto">
@import url(https://fonts.googleapis.com/css2?family=Roboto:wght@400;700&amp;display=block);
</style>
<rect width="924" height="492" fill="white" rx="12"/>
<style class="text-font-style">



</style>
<g id="items" style="isolation:isolate;">
<g id="blend" style="mix-blend-mode:normal;">
<g id="g-root-cp_center-visual_g-center-visual_4pfhl0ubb403-fill" data-item-order="-382527" transform="translate(338.0, 116.0)"></g>
<g id="g-root-cp_center-visual_g-center-visual_4pfhl0ubb403-stroke" data-item-order="-382527" transform="translate(338.0, 116.0)">
<g id="cp_center-visual_g-center-visual_4pfhl0ubb403-stroke" fill="none" stroke-linecap="round" stroke-linejoin="round" stroke-miterlimit="4" stroke="#484848" stroke-width="2" stroke-opacity="1.0">
<g>
<path d="M 124 214C 173.7056 214 214 173.7056 214 124C 214 74.2944 173.7056 34 124 34C 74.2944 34 34 74.2944 34 124C 34 173.7056 74.2944 214 124 214ZM 238 214L 238 10L 10 10L 10 214M 10 214L 10 322L 238 322L 238 214"></path>
</g>
</g>
</g>
<g id="g-root-cp_text-pros_g-text-pros_1d3mitgubb47a-fill" data-item-order="-382515" transform="translate(14.0, 189.0)"></g>
<g id="g-root-cp_text-pros_g-text-pros_1d3mitgubb47a-stroke" data-item-order="-382515" transform="translate(14.0, 189.0)">
<g id="cp_text-pros_g-text-pros_1d3mitgubb47a-stroke" fill="none" stroke-linecap="round" stroke-linejoin="round" stroke-miterlimit="4" stroke="#484848" stroke-width="2" stroke-opacity="1.0">
<g>
<path d="M 10 10L 322.5 10"></path>
</g>
</g>
</g>
<g id="g-root-cp_text-cons_text_cons_1uuwjb8ubb4ej-fill" data-item-order="-382505" transform="translate(578.0, 188.0)"></g>
<g id="g-root-cp_text-cons_text_cons_1uuwjb8ubb4ej-stroke" data-item-order="-382505" transform="translate(578.0, 188.0)">
<g id="cp_text-cons_text_cons_1uuwjb8ubb4ej-stroke" fill="none" stroke-linecap="round" stroke-linejoin="round" stroke-miterlimit="4" stroke="#484848" stroke-width="2" stroke-opacity="1.0">
<g>
<path d="M 10 10L 322 10"></path>
</g>
</g>
</g>
<g id="g-root-cp_list-pros_Frame_zisw5gubcgsn-fill" data-item-order="-382459" transform="translate(14.0, 428.0)"></g>
<g id="g-root-cp_list-pros_Frame_zisw5gubcgsn-stroke" data-item-order="-382459" transform="translate(14.0, 428.0)">
<g id="cp_list-pros_Frame_zisw5gubcgsn-stroke" fill="none" stroke-linecap="round" stroke-linejoin="round" stroke-miterlimit="4" stroke="#484848" stroke-width="2" stroke-opacity="1.0">
<g>
<path d="M 10 10L 322.5 10"></path>
</g>
</g>
</g>
<g id="g-root-cp_list-cons_Frame_1_v2ze10ubchs9-fill" data-item-order="-382419" transform="translate(578.0, 428.0)"></g>
<g id="g-root-cp_list-cons_Frame_1_v2ze10ubchs9-stroke" data-item-order="-382419" transform="translate(578.0, 428.0)">
<g id="cp_list-cons_Frame_1_v2ze10ubchs9-stroke" fill="none" stroke-linecap="round" stroke-linejoin="round" stroke-miterlimit="4" stroke="#484848" stroke-width="2" stroke-opacity="1.0">
<g>
<path d="M 10 10L 322 10"></path>
</g>
</g>
</g>
<g id="g-root-tx_dappdesi_18efwecubchza-fill" data-item-order="0" transform="translate(314.03125, 38.0)">
<g id="tx_dappdesi_18efwecubchza-fill-merged" stroke="none" fill="#484848" fill-opacity="1.0">
<g>
<text transform="translate(145.96875, 10.0)" style="font-size:25px; font-family:'Roboto', sans-serif; font-weight:bold; white-space:pre;">
<tspan x="-133.97" y="30" dominant-baseline="ideographic">dApp Design Adaptation</tspan>
</text>
</g>
</g>
</g>
<g id="g-root-tx_dappdesi_18efwecubchza-stroke" data-item-order="0" transform="translate(314.03125, 38.0)"></g>
<g id="g-root-tx_pros_v2ze10ubcikv-fill" data-item-order="0" transform="translate(14.0, 152.0)">
<g id="tx_pros_v2ze10ubcikv-fill-merged" stroke="none" fill="#424736" fill-opacity="1.0">
<g>
<text transform="translate(10.0, 10.0)" style="font-size:20px; font-family:'Roboto', sans-serif; white-space:pre;">
<tspan x="2" y="24" dominant-baseline="ideographic">Pros</tspan>
</text>
</g>
</g>
</g>
<g id="g-root-tx_pros_v2ze10ubcikv-stroke" data-item-order="0" transform="translate(14.0, 152.0)"></g>
<g id="g-root-tx_cons_1uljf0kubciry-fill" data-item-order="0" transform="translate(840.234375, 152.0)">
<g id="tx_cons_1uljf0kubciry-fill-merged" stroke="none" fill="#543a3a" fill-opacity="1.0">
<g>
<text transform="translate(55.765625, 10.0)" style="font-size:20px; font-family:'Roboto', sans-serif; white-space:pre;">
<tspan x="-43.77" y="24" dominant-baseline="ideographic">Cons</tspan>
</text>
</g>
</g>
</g>
<g id="g-root-tx_cons_1uljf0kubciry-stroke" data-item-order="0" transform="translate(840.234375, 152.0)"></g>
<g id="g-root-ic_8_dbpdj8ubcj64-fill" data-item-order="0" transform="translate(410.0, 189.0)"></g>
<g id="g-root-ic_8_dbpdj8ubcj64-stroke" data-item-order="0" transform="translate(410.0, 189.0)">
<g id="ic_8_dbpdj8ubcj64-stroke" fill="none" stroke-linecap="round" stroke-linejoin="round" stroke-miterlimit="4" stroke="#484848" stroke-width="2" stroke-opacity="1.0">
<g>
<path d="M 15.816999 72.163498C 15.817 76.601662 19.414841 80.199501 23.853001 80.199501C 28.291161 80.199501 31.889 76.601662 31.889 72.163498C 31.889 67.725342 28.291161 64.127502 23.853001 64.127502C 19.414841 64.127502 15.817 67.725342 15.817 72.163498M 11.8025 92.25C 14.615279 88.418701 19.100286 86.175552 23.853001 86.223C 28.604347 86.177261 33.087559 88.420166 35.899998 92.249992M 72.160004 72.163498C 72.160004 76.601662 75.757843 80.199501 80.195999 80.199501C 84.634163 80.199501 88.232002 76.601662 88.232002 72.163498C 88.232002 67.725342 84.634163 64.127502 80.195999 64.127502C 75.757843 64.127502 72.160004 67.725342 72.160004 72.163498M 68.1455 92.25C 70.986923 88.450714 75.453468 86.213646 80.197754 86.213646C 84.942039 86.213646 89.408585 88.450714 92.250008 92.250008M 24 29.6875L 27.5 33.1875L 38 22.6875M 66 21.375L 80 35.375M 80 21.375L 66 35.375M 57.25 45.875L 67.998497 45.875L 73 54.625L 78.001503 45.875L 88.75 45.875C 90.682999 45.875 92.25 44.307999 92.25 42.375L 92.25 15.25C 92.25 13.317003 90.682999 11.75 88.75 11.75L 57.25 11.75M 46.75 11.75L 15.25 11.75C 13.317003 11.75 11.75 13.317003 11.75 15.25L 11.75 42.375C 11.75 44.307999 13.317003 45.875 15.25 45.875L 25.998501 45.875L 31 54.625L 36.001499 45.875L 46.75 45.875C 48.682999 45.875 50.25 44.307999 50.25 42.375L 50.25 15.25C 50.25 13.317003 48.682999 11.75 46.75 11.75Z"></path>
</g>
</g>
</g>
<g id="g-root-tx_enhanced_qu13usubfaww-fill" data-item-order="0" transform="translate(74.0, 236.0)">
<g id="tx_enhanced_qu13usubfaww-fill-merged" stroke="none" fill="#484848" fill-opacity="1.0">
<g>
<text transform="translate(10.0, 10.0)" style="font-size:15px; font-family:'Roboto', sans-serif; white-space:pre;">
<tspan x="2" y="18" dominant-baseline="ideographic">Enhanced user experience</tspan>
</text>
</g>
</g>
</g>
<g id="g-root-tx_enhanced_qu13usubfaww-stroke" data-item-order="0" transform="translate(74.0, 236.0)"></g>
<g id="g-root-ic_smil_4mxl8kubfbb6-fill" data-item-order="0" transform="translate(14.0, 224.0)"></g>
<g id="g-root-ic_smil_4mxl8kubfbb6-stroke" data-item-order="0" transform="translate(14.0, 224.0)">
<g id="ic_smil_4mxl8kubfbb6-stroke" fill="none" stroke-linecap="round" stroke-linejoin="round" stroke-miterlimit="4" stroke="#92bd39" stroke-width="2" stroke-opacity="1.0">
<g>
<path d="M 39.5 43.5L 39.5 56.5L 19.5 56.5L 19.5 31.5C 19.5 30.39543 20.395432 29.5 21.5 29.5L 25 29.5M 13.5 43.5L 19.5 43.5L 19.5 43.5L 19.5 56.5L 19.5 56.5L 11.5 56.5L 11.5 56.5L 11.5 45.5C 11.5 44.395432 12.395431 43.5 13.5 43.5ZM 39.5 43.5L 45.5 43.5C 46.604568 43.5 47.5 44.395432 47.5 45.5L 47.5 56.5L 47.5 56.5L 39.5 56.5L 39.5 56.5L 39.5 43.5L 39.5 43.5ZM 30.5 24.5C 30.500002 31.679703 36.320297 37.5 43.5 37.5C 50.679703 37.5 56.5 31.679703 56.5 24.5C 56.5 17.320299 50.679703 11.500001 43.5 11.500001C 36.320297 11.500001 30.500002 17.320299 30.500002 24.5M 36.5 23C 36.5 23.276142 36.723858 23.5 37 23.5C 37.276142 23.5 37.5 23.276142 37.5 23C 37.5 22.723858 37.276142 22.5 37 22.5C 36.723858 22.5 36.5 22.723858 36.5 23M 49.5 23C 49.5 23.276142 49.723858 23.5 50 23.5C 50.276142 23.5 50.5 23.276142 50.5 23C 50.5 22.723858 50.276142 22.5 50 22.5C 49.723858 22.5 49.5 22.723858 49.5 23M 47.827999 28.172001C 45.43742 30.561579 41.562584 30.561579 39.172001 28.172001M 26.719999 42.549999L 32.279999 42.549999M 26.719999 35.889999L 29.5 35.889999M 26.719999 49.209999L 32.279999 49.209999M 39.5 47.810001L 42.27 47.810001M 39.5 51.902L 42.27 51.902M 16.73 47.810001L 19.5 47.810001M 16.73 51.902L 19.5 51.902"></path>
</g>
</g>
</g>
<g id="g-root-tx_brandcon_18kon9gubi3gt-fill" data-item-order="0" transform="translate(74.0, 290.0)">
<g id="tx_brandcon_18kon9gubi3gt-fill-merged" stroke="none" fill="#484848" fill-opacity="1.0">
<g>
<text transform="translate(10.0, 10.0)" style="font-size:15px; font-family:'Roboto', sans-serif; white-space:pre;">
<tspan x="2" y="18" dominant-baseline="ideographic">Brand consistency</tspan>
</text>
</g>
</g>
</g>
<g id="g-root-tx_brandcon_18kon9gubi3gt-stroke" data-item-order="0" transform="translate(74.0, 290.0)"></g>
<g id="g-root-ic_samp_hxrmisubi423-fill" data-item-order="0" transform="translate(14.0, 278.0)"></g>
<g id="g-root-ic_samp_hxrmisubi423-stroke" data-item-order="0" transform="translate(14.0, 278.0)">
<g id="ic_samp_hxrmisubi423-stroke" fill="none" stroke-linecap="round" stroke-linejoin="round" stroke-miterlimit="4" stroke="#92bd39" stroke-width="2" stroke-opacity="1.0">
<g>
<path d="M 17 15L 25 15C 25 15 26 15 26 16L 26 22C 26 22 26 23 25 23L 17 23C 17 23 16 23 16 22L 16 16C 16 16 16 15 17 15M 17 27L 25 27C 25 27 26 27 26 28L 26 34C 26 34 26 35 25 35L 17 35C 17 35 16 35 16 34L 16 28C 16 28 16 27 17 27M 17 39L 25 39C 25 39 26 39 26 40L 26 46C 26 46 26 47 25 47L 17 47C 17 47 16 47 16 46L 16 40C 16 40 16 39 17 39M 19 52C 19 53.104568 19.895432 54 21 54C 22.104568 54 23 53.104568 23 52C 23 50.895432 22.104568 50 21 50C 19.895432 50 19 50.895432 19 52M 30.700001 56L 56.52 27.879999C 57.238026 27.040546 57.139526 25.777943 56.299999 25.060001L 50 19.68M 13 11L 29 11C 29 11 31 11 31 13L 31 55C 31 55 31 57 29 57L 13 57C 13 57 11 57 11 55L 11 13C 11 13 11 11 13 11M 31 55L 45.779999 18.279999C 45.967346 17.781494 45.948143 17.228857 45.726643 16.74456C 45.505142 16.260262 45.09964 15.884302 44.599998 15.7L 35.700001 12.4"></path>
</g>
</g>
</g>
<g id="g-root-tx_function_vah32cubjh8i-fill" data-item-order="0" transform="translate(74.0, 344.0)">
<g id="tx_function_vah32cubjh8i-fill-merged" stroke="none" fill="#484848" fill-opacity="1.0">
<g>
<text transform="translate(10.0, 10.0)" style="font-size:15px; font-family:'Roboto', sans-serif; white-space:pre;">
<tspan x="2" y="18" dominant-baseline="ideographic">Functional design</tspan>
</text>
</g>
</g>
</g>
<g id="g-root-tx_function_vah32cubjh8i-stroke" data-item-order="0" transform="translate(74.0, 344.0)"></g>
<g id="g-root-ic_grap_1qd7lxgubjhfp-fill" data-item-order="0" transform="translate(14.0, 332.0)"></g>
<g id="g-root-ic_grap_1qd7lxgubjhfp-stroke" data-item-order="0" transform="translate(14.0, 332.0)">
<g id="ic_grap_1qd7lxgubjhfp-stroke" fill="none" stroke-linecap="round" stroke-linejoin="round" stroke-miterlimit="4" stroke="#92bd39" stroke-width="2" stroke-opacity="1.0">
<g>
<path d="M 37 24C 37 27.865993 40.13401 31 44 31C 47.865993 31 51 27.865993 51 24C 51 20.134007 47.865993 17 44 17C 40.13401 17 37 20.134007 37 24M 17 51L 21.4 44.834C 21.556288 44.615219 21.794092 44.46859 22.059757 44.427197C 22.32542 44.385807 22.596561 44.453136 22.812 44.613998L 25.200001 46.400002C 25.641827 46.731369 26.268629 46.641827 26.6 46.200001L 32 39M 45.501999 17.162001L 44 24L 50.948002 23.15M 40 37L 50 37C 50 37 51 37 51 38L 51 50C 51 50 51 51 50 51L 40 51C 40 51 39 51 39 50L 39 38C 39 38 39 37 40 37M 43 43L 47 43M 43 47L 45 47M 18 17L 28 17C 28 17 29 17 29 18L 29 30C 29 30 29 31 28 31L 18 31C 18 31 17 31 17 30L 17 18C 17 18 17 17 18 17M 21 21L 25 21M 21 25L 23 25M 13 11L 55 11C 55 11 57 11 57 13L 57 55C 57 55 57 57 55 57L 13 57C 13 57 11 57 11 55L 11 13C 11 13 11 11 13 11"></path>
</g>
</g>
</g>
<g id="g-root-tx_developm_1448o1wubkx6r-fill" data-item-order="0" transform="translate(661.890625, 236.0)">
<g id="tx_developm_1448o1wubkx6r-fill-merged" stroke="none" fill="#484848" fill-opacity="1.0">
<g>
<text transform="translate(174.109375, 10.0)" style="font-size:15px; font-family:'Roboto', sans-serif; white-space:pre;">
<tspan x="-162.11" y="18" dominant-baseline="ideographic">Development complexity</tspan>
</text>
</g>
</g>
</g>
<g id="g-root-tx_developm_1448o1wubkx6r-stroke" data-item-order="0" transform="translate(661.890625, 236.0)"></g>
<g id="g-root-ic_1_hx55foubkxkz-fill" data-item-order="0" transform="translate(842.0, 224.0)"></g>
<g id="g-root-ic_1_hx55foubkxkz-stroke" data-item-order="0" transform="translate(842.0, 224.0)">
<g id="ic_1_hx55foubkxkz-stroke" fill="none" stroke-linecap="round" stroke-linejoin="round" stroke-miterlimit="4" stroke="#e55753" stroke-width="2" stroke-opacity="1.0">
<g>
<path d="M 33.084 57L 13.084 57C 11.97943 57 11.084 56.104568 11.084 55L 11.084 13C 11.084 11.895431 11.97943 11 13.084 11L 39.669998 11C 40.202408 11.003817 40.711319 11.219762 41.084 11.6L 48.498001 19C 48.8731 19.374985 49.083885 19.88361 49.084 20.414L 49.084 25M 23.084 24.007999L 17.084 30.007999L 23.084 36.007999M 29.084 24.007999L 35.084 30.007999L 29.084 36.007999M 42.709999 44.07C 42.710003 45.657269 43.996735 46.944 45.584003 46.944C 47.171268 46.944 48.458 45.657269 48.458 44.070004C 48.458 42.482735 47.171268 41.195999 45.584003 41.195999C 43.996735 41.195999 42.710003 42.482735 42.710003 44.070004ZM 48.026001 32.947998L 48.874001 35.732002C 49.162422 36.691452 50.145653 37.262665 51.122002 37.038002L 53.944 36.384003C 55.041874 36.136539 56.172871 36.633347 56.733356 37.609264C 57.293846 38.585182 57.153004 39.812428 56.386002 40.636002L 54.411999 42.764C 53.730465 43.501297 53.730465 44.638706 54.412003 45.376003L 56.386002 47.504002C 57.153004 48.327572 57.293846 49.554817 56.733356 50.530735C 56.172871 51.506657 55.041874 52.00346 53.944 51.756001L 51.122002 51.102001C 50.145653 50.877335 49.162422 51.448551 48.874001 52.408001L 48.026001 55.200001C 47.701916 56.277843 46.709515 57.015739 45.584 57.015739C 44.458488 57.015739 43.466084 56.277843 43.141998 55.200001L 42.293999 52.400002C 42.004711 51.440266 41.020851 50.86919 40.043999 51.094002L 37.222 51.748001C 36.124126 51.995461 34.99313 51.498657 34.43264 50.522736C 33.872154 49.546818 34.012997 48.319572 34.779999 47.495998L 36.753998 45.368C 37.435539 44.630707 37.435539 43.493298 36.754002 42.756001L 34.779999 40.627998C 34.012997 39.804428 33.872154 38.577183 34.43264 37.601265C 34.99313 36.625343 36.124126 36.12854 37.222 36.375999L 40.043999 37.029999C 41.020851 37.254807 42.004711 36.683735 42.294003 35.723999L 43.141998 32.940002C 43.467846 31.862682 44.461456 31.126406 45.586975 31.12825C 46.71249 31.130095 47.703686 31.869621 48.026001 32.947998Z"></path>
</g>
</g>
</g>
<g id="g-root-tx_maintena_18kon9gubkwlj-fill" data-item-order="0" transform="translate(663.8125, 290.0)">
<g id="tx_maintena_18kon9gubkwlj-fill-merged" stroke="none" fill="#484848" fill-opacity="1.0">
<g>
<text transform="translate(172.1875, 10.0)" style="font-size:15px; font-family:'Roboto', sans-serif; white-space:pre;">
<tspan x="-160.19" y="18" dominant-baseline="ideographic">Maintenance challenges</tspan>
</text>
</g>
</g>
</g>
<g id="g-root-tx_maintena_18kon9gubkwlj-stroke" data-item-order="0" transform="translate(663.8125, 290.0)"></g>
<g id="g-root-ic_4_18kon9gubkwzm-fill" data-item-order="0" transform="translate(842.0, 278.0)"></g>
<g id="g-root-ic_4_18kon9gubkwzm-stroke" data-item-order="0" transform="translate(842.0, 278.0)">
<g id="ic_4_18kon9gubkwzm-stroke" fill="none" stroke-linecap="round" stroke-linejoin="round" stroke-miterlimit="4" stroke="#e55753" stroke-width="2" stroke-opacity="1.0">
<g>
<path d="M 55.858002 56.313999C 54.405674 52.521877 50.747829 50.033264 46.687328 50.074734C 42.626823 50.116207 39.020569 52.679008 37.645996 56.5M 53.610001 40.327999C 53.652206 42.793461 52.361061 45.08992 50.232666 46.334995C 48.104267 47.58007 45.469734 47.58007 43.341339 46.334995C 41.212944 45.08992 39.921795 42.793461 39.964001 40.328003M 49.155998 31.934C 52.374481 32.974796 54.555313 35.97142 54.556004 39.354004M 38.954002 40.327999L 38.954002 39.354C 38.954025 35.773403 41.391876 32.652691 44.866001 31.786001M 37.003998 40.327999L 56.5 40.327999M 32.639999 45.360001L 31.184 43.745998C 30.608044 43.109283 29.789566 42.745998 28.931 42.745998C 28.072433 42.745998 27.253956 43.109283 26.677999 43.745998L 25.220001 45.360001C 24.359104 46.311974 22.992567 46.619717 21.806702 46.128674C 20.620838 45.63763 19.871889 44.453907 19.936001 43.171997L 20.048 41C 20.09153 40.142414 19.769863 39.306503 19.16268 38.699318C 18.555494 38.092133 17.719585 37.77047 16.862 37.813999L 14.690001 37.924C 13.406998 37.990547 12.221166 37.241806 11.729657 36.054817C 11.238149 34.867828 11.547527 33.499947 12.502 32.639999L 14.116 31.184C 14.752718 30.608044 15.116002 29.789566 15.116002 28.931C 15.116002 28.072433 14.752718 27.253956 14.116 26.677999L 12.502 25.222C 11.54838 24.361418 11.239553 22.993824 11.730824 21.806959C 12.222095 20.620096 13.407133 19.870846 14.690001 19.936001L 16.862 20.048C 17.719412 20.090895 18.554945 19.769024 19.161983 19.161983C 19.769024 18.554945 20.090895 17.719412 20.048 16.862L 19.936001 14.690001C 19.871889 13.408092 20.620838 12.224367 21.806702 11.733324C 22.992567 11.242281 24.359104 11.550026 25.219999 12.502L 26.677999 14.116C 27.253956 14.752718 28.072433 15.116002 28.931 15.116002C 29.789566 15.116002 30.608044 14.752718 31.184 14.116L 32.639999 12.502C 33.499947 11.547527 34.867828 11.238149 36.054817 11.729657C 37.241806 12.221166 37.990547 13.406998 37.924 14.690001L 37.813999 16.862C 37.77047 17.719585 38.092133 18.555494 38.699318 19.16268C 39.306503 19.769863 40.142414 20.09153 41 20.048L 43.172001 19.936001C 44.454865 19.870846 45.639904 20.620096 46.131176 21.806959C 46.622444 22.993824 46.313618 24.361418 45.360001 25.222L 43.745998 26.677999M 21.958 28.93C 21.958 32.780533 25.079472 35.902 28.930002 35.902C 32.780533 35.902 35.902 32.780533 35.902 28.930002C 35.902 25.079472 32.780533 21.958 28.930002 21.958C 25.079472 21.958 21.958 25.079472 21.958 28.930002M 48.374001 35.417999L 45.374001 35.417999L 44.703999 30.695999C 44.663193 30.407501 44.750244 30.115553 44.942387 29.896513C 45.134525 29.677473 45.412643 29.553129 45.703999 29.556L 48.056 29.556C 48.347355 29.553129 48.625473 29.677473 48.817616 29.896513C 49.009754 30.115553 49.096806 30.407501 49.056 30.695999Z"></path>
</g>
</g>
</g>
<g id="g-root-tx_potentia_v48c78ubmadm-fill" data-item-order="0" transform="translate(734.171875, 344.0)">
<g id="tx_potentia_v48c78ubmadm-fill-merged" stroke="none" fill="#484848" fill-opacity="1.0">
<g>
<text transform="translate(101.828125, 19.0)" style="font-size:15px; font-family:'Roboto', sans-serif; white-space:pre;">
<tspan x="-83.7" y="9" dominant-baseline="ideographic">Potential for </tspan>
<tspan x="-89.83" y="27" dominant-baseline="ideographic">inconsistency</tspan>
</text>
</g>
</g>
</g>
<g id="g-root-tx_potentia_v48c78ubmadm-stroke" data-item-order="0" transform="translate(734.171875, 344.0)"></g>
<g id="g-root-ic_1_4hbbgkubmb5y-fill" data-item-order="0" transform="translate(842.0, 332.0)"></g>
<g id="g-root-ic_1_4hbbgkubmb5y-stroke" data-item-order="0" transform="translate(842.0, 332.0)">
<g id="ic_1_4hbbgkubmb5y-stroke" fill="none" stroke-linecap="round" stroke-linejoin="round" stroke-miterlimit="4" stroke="#e55753" stroke-width="2" stroke-opacity="1.0">
<g>
<path d="M 16.278 19C 16.278 21.209139 18.068861 23 20.278 23C 22.487139 23 24.278 21.209139 24.278 19C 24.278 16.790861 22.487139 15 20.278 15C 18.068861 15 16.278 16.790861 16.278 19ZM 16.278 31C 16.278 33.209137 18.068861 35 20.278 35C 22.487139 35 24.278 33.209137 24.278 31C 24.278 28.790861 22.487139 27 20.278 27C 18.068861 27 16.278 28.790861 16.278 31ZM 16.278 43C 16.278 45.209141 18.068861 47 20.278 47C 22.487139 47 24.278 45.209141 24.278 43C 24.278 40.790863 22.487139 39 20.278 39C 18.068861 39 16.278 40.790863 16.278 43ZM 28.278 49C 28.278 53.418278 24.696278 57 20.278 57C 15.859722 57 12.278 53.418278 12.278 49L 12.278 15C 12.278 12.790861 14.068861 11 16.278 11L 24.278 11C 26.487139 11 28.278 12.790861 28.278 15ZM 27.136 53.119999L 44.200001 23.554001C 45.304516 21.640879 44.649071 19.194601 42.736 18.09L 35.807999 14.09C 33.894432 12.98412 31.446657 13.639727 30.341999 15.554L 28.271999 19.153999M 55.186001 33.464001L 51.186001 26.535999C 50.081398 24.622929 47.63512 23.967484 45.722 25.071999L 42.133999 27.143999L 27.200001 53C 26.518419 54.184071 25.543901 55.173054 24.369999 55.872002L 53.716 38.928001C 55.631252 37.825455 56.289513 35.378693 55.186001 33.464001ZM 20.278 51.498001C 20.554142 51.498001 20.778 51.721859 20.778 51.998001C 20.778 52.274143 20.554142 52.498001 20.278 52.498001C 20.001858 52.498001 19.778 52.274143 19.778 51.998001C 19.778 51.721859 20.001858 51.498001 20.278 51.498001"></path>
</g>
</g>
</g>
</g>
</g>
</svg>