<?xml version="1.0" encoding="utf-8" standalone="yes"?>
<!DOCTYPE svg PUBLIC "-//W3C//DTD SVG 1.1//EN" "http://www.w3.org/Graphics/SVG/1.1/DTD/svg11.dtd">
<svg version="1.1" xmlns="http://www.w3.org/2000/svg" xmlns:xlink="http://www.w3.org/1999/xlink" width="700" height="554" viewBox="0 0 700 554" style="fill:none; stroke:none; fill-rule:evenodd; clip-rule:evenodd; stroke-linecap:round; stroke-linejoin:round; stroke-miterlimit:1.5;">
<style class="text-font-style fontImports" data-font-family="Roboto">
@import url(https://fonts.googleapis.com/css2?family=Roboto:wght@400;700&amp;display=block);
</style>
<rect width="700" height="554" fill="white" rx="12"/>
<style class="text-font-style">



</style>
<g id="items" style="isolation:isolate;">
<g id="blend" style="mix-blend-mode:normal;">
<g id="g-root-cp_-1_container_1_hv9whwu1qxoh-fill" data-item-order="-326075" transform="translate(61.77301025390625, 164.0)"></g>
<g id="g-root-cp_-1_container_1_hv9whwu1qxoh-stroke" data-item-order="-326075" transform="translate(61.77301025390625, 164.0)"></g>
<g id="g-root-cp_1_g-1_1cy0fd0u1qyhb-fill" data-item-order="-326015" transform="translate(464.77301025390625, 93.99822235107422)"></g>
<g id="g-root-cp_1_g-1_1cy0fd0u1qyhb-stroke" data-item-order="-326015" transform="translate(464.77301025390625, 93.99822235107422)">
<g id="cp_1_g-1_1cy0fd0u1qyhb-stroke" fill="none" stroke-linecap="round" stroke-linejoin="round" stroke-miterlimit="4" stroke="#92bd39" stroke-width="2" stroke-opacity="1.0">
<g>
<path d="M 52.05539 49.3814C 60.66339 42.2526 68.40989 29.3448 73.98529 10L 84.18989 39.43C 85.74429 44.1268 85.87949 50.642 84.74749 57.8377C 78.99469 54.7475 71.23139 53.2191 63.23989 51.4229C 59.05839 50.4746 55.35839 49.8165 52.04689 49.3814L 52.05539 49.3814Z"></path>
</g>
</g>
<g id="cp_1_g-1_1cy0fd0u1qyhb-stroke" fill="none" stroke-linecap="round" stroke-linejoin="round" stroke-miterlimit="4" stroke="#92bd39" stroke-width="2" stroke-opacity="1.0">
<g>
<path d="M 63.368414 100.994267C 58.663114 105.400867 53.307414 108.658567 47.394114 110.075367C 3.787714 120.562167 10.351414 106.204167 10.351414 106.204167C 12.581614 99.677867 34.942314 95.349167 63.368414 100.994267Z"></path>
</g>
</g>
<g id="cp_1_g-1_1cy0fd0u1qyhb-stroke" fill="none" stroke-linecap="round" stroke-linejoin="round" stroke-miterlimit="4" stroke="#92bd39" stroke-width="2" stroke-opacity="1.0">
<g>
<path d="M 92.470478 65.347685C 88.094678 56.445085 75.955477 54.291885 63.250378 51.424685C 45.586478 47.441985 36.429278 48.390285 29.324878 50.610285C 23.259478 63.674185 10.351578 106.201585 10.351578 106.201585C 12.598678 99.619485 35.280378 95.268585 64.027478 101.114385C 92.774578 106.960185 112.972778 125.066685 115.000178 131.001785C 115.000178 131.001785 96.846378 74.250285 92.470478 65.347685Z"></path>
</g>
</g>
</g>
<g id="g-root-cp_2_g-2_4jte4ku1qz2i-fill" data-item-order="-326007" transform="translate(434.7730407714844, 193.00308227539062)"></g>
<g id="g-root-cp_2_g-2_4jte4ku1qz2i-stroke" data-item-order="-326007" transform="translate(434.7730407714844, 193.00308227539062)">
<g id="cp_2_g-2_4jte4ku1qz2i-stroke" fill="none" stroke-linecap="round" stroke-linejoin="round" stroke-miterlimit="4" stroke="#1eabda" stroke-width="2" stroke-opacity="1.0">
<g>
<path d="M 118.234456 10.000012C 133.541156 17.586812 143.433556 27.303212 144.816656 31.340612C 144.816656 31.340612 144.681756 30.919112 144.437156 30.153812L 145.162356 31.806412C 147.279156 38.849712 147.818956 45.393912 147.051456 51.450012C 136.998856 44.029612 118.512756 37.407812 96.746056 33.581212C 105.904756 27.225612 113.503356 19.028712 118.242856 10.000012L 118.234456 10.000012Z"></path>
</g>
</g>
<g id="cp_2_g-2_4jte4ku1qz2i-stroke" fill="none" stroke-linecap="round" stroke-linejoin="round" stroke-miterlimit="4" stroke="#1eabda" stroke-width="2" stroke-opacity="1.0">
<g>
<path d="M 95.204163 84.431214C 102.979763 85.728914 110.384363 87.481414 117.333463 89.544514C 103.468963 97.475114 86.171963 102.854614 68.461763 105.716314C 57.709163 107.457714 48.339563 108.500414 40.243463 108.622414C 4.949563 109.165914 10.287963 94.912914 10.287963 94.912914C 13.551663 85.385114 49.537063 76.833314 95.195763 84.420114L 95.204163 84.431214Z"></path>
</g>
</g>
<g id="cp_2_g-2_4jte4ku1qz2i-stroke" fill="none" stroke-linecap="round" stroke-linejoin="round" stroke-miterlimit="4" stroke="#1eabda" stroke-width="2" stroke-opacity="1.0">
<g>
<path d="M 177.000537 124.996884C 177.000537 124.996884 159.231237 69.970584 154.213337 59.300284C 149.187037 48.629884 124.738537 38.170284 94.411937 33.167884C 59.809537 27.466684 37.199537 33.267784 29.811837 37.892984C 23.309637 51.768884 10.296837 94.927084 10.296837 94.927084C 13.560537 85.399184 49.546037 76.847384 95.204637 84.434184C 140.863237 92.020984 173.753637 115.524484 177.000537 124.996884Z"></path>
</g>
</g>
</g>
<g id="g-root-cp_3_g-3_18itebou1qy2t-fill" data-item-order="-325999" transform="translate(403.7730407714844, 283.0036926269531)"></g>
<g id="g-root-cp_3_g-3_18itebou1qy2t-stroke" data-item-order="-325999" transform="translate(403.7730407714844, 283.0036926269531)">
<g id="cp_3_g-3_18itebou1qy2t-stroke" fill="none" stroke-linecap="round" stroke-linejoin="round" stroke-miterlimit="4" stroke="#4e88e7" stroke-width="2" stroke-opacity="1.0">
<g>
<path d="M 127.155977 77.295391C 144.229577 79.860991 160.036477 83.887891 174.103977 88.662191C 160.053377 95.756691 142.895377 101.311791 124.580677 105.215991C 84.413077 99.962091 50.966877 103.486991 28.911477 109.175991C 6.349377 103.866291 10.258977 93.313791 10.258977 93.313791C 14.556877 80.719891 64.460177 67.880691 127.155977 77.306491L 127.155977 77.295391Z"></path>
</g>
</g>
<g id="cp_3_g-3_18itebou1qy2t-stroke" fill="none" stroke-linecap="round" stroke-linejoin="round" stroke-miterlimit="4" stroke="#4e88e7" stroke-width="2" stroke-opacity="1.0">
<g>
<path d="M 176.375171 10.011188C 194.402871 19.035488 205.911871 29.052488 207.769571 34.484888C 207.769571 34.484888 207.752671 34.417988 207.710471 34.306488L 208.250871 35.600388C 210.091571 41.802488 210.226671 47.669988 208.917871 53.191588C 197.788871 44.624688 177.354671 35.254588 151.871071 28.885188C 161.877071 23.330088 170.346271 16.904888 176.375171 9.999988L 176.375171 10.011188Z"></path>
</g>
</g>
<g id="cp_3_g-3_18itebou1qy2t-stroke" fill="none" stroke-linecap="round" stroke-linejoin="round" stroke-miterlimit="4" stroke="#4e88e7" stroke-width="2" stroke-opacity="1.0">
<g>
<path d="M 239.999477 128.996331C 239.999477 128.996331 223.086377 75.062531 217.395177 62.502231C 211.712477 49.941831 174.390577 30.822331 126.327977 23.861731C 74.718977 16.097931 38.570777 27.085431 30.878377 34.179931C 23.920577 49.027131 10.249977 93.300731 10.249977 93.300731C 14.547877 80.706931 64.451277 67.867731 127.147077 77.293531C 189.842877 86.719431 235.524277 115.867031 239.991077 128.985131L 239.999477 128.996331Z"></path>
</g>
</g>
</g>
<g id="g-root-cp_4_g-4_1hegekku1qygy-fill" data-item-order="-325991" transform="translate(373.77301025390625, 374.99639892578125)"></g>
<g id="g-root-cp_4_g-4_1hegekku1qygy-stroke" data-item-order="-325991" transform="translate(373.77301025390625, 374.99639892578125)">
<g id="cp_4_g-4_1hegekku1qygy-stroke" fill="none" stroke-linecap="round" stroke-linejoin="round" stroke-miterlimit="4" stroke="#3cc583" stroke-width="2" stroke-opacity="1.0">
<g>
<path d="M 235.119875 10.000004C 253.950575 19.537804 266.228875 29.485404 269.365875 36.054404L 270.285075 38.314204C 271.946375 43.919404 271.786175 49.303104 270.057375 54.409804C 258.529675 45.171204 237.430475 34.237604 210.234375 25.663604C 220.202075 20.889204 228.710875 15.594204 235.128375 10.000004L 235.119875 10.000004Z"></path>
</g>
</g>
<g id="cp_4_g-4_1hegekku1qygy-stroke" fill="none" stroke-linecap="round" stroke-linejoin="round" stroke-miterlimit="4" stroke="#3cc583" stroke-width="2" stroke-opacity="1.0">
<g>
<path d="M 158.3863 68.837663C 186.0378 72.703763 211.1257 79.394563 232.326 87.159963L 232.3614 87.175363C 201.0697 101.622663 155.1466 110.907563 110.3305 113.338563C 93.2811 114.260263 77.3465 114.385963 62.8927 113.310563C 2.6732 108.820763 10.3129 90.173063 10.3129 90.173063C 15.6256 74.686663 78.805 57.715863 158.3863 68.848763L 158.3863 68.837663Z"></path>
</g>
</g>
<g id="cp_4_g-4_1hegekku1qygy-stroke" fill="none" stroke-linecap="round" stroke-linejoin="round" stroke-miterlimit="4" stroke="#3cc583" stroke-width="2" stroke-opacity="1.0">
<g>
<path d="M 301.9983 131.003612C 301.9983 131.003612 285.4614 78.850612 279.1198 64.560512C 272.7867 50.270512 223.2012 22.864712 157.5342 13.914012C 89.0421 4.332012 39.4651 20.228212 31.4791 29.688412C 24.0834 45.307812 10.3125 90.160712 10.3125 90.160712C 15.6252 74.674312 78.8046 57.703512 158.3859 68.836412C 237.9673 79.969412 296.3061 114.409412 301.9983 131.003612Z"></path>
</g>
</g>
</g>
<g id="g-root-tx_integrat_1upwwxwu1qyo0-fill" data-item-order="0" transform="translate(190.78863525390625, 38.0)">
<g id="tx_integrat_1upwwxwu1qyo0-fill-merged" stroke="none" fill="#484848" fill-opacity="1.0">
<g>
<text transform="translate(150.984375, 10.0)" style="font-size:25px; font-family:'Roboto', sans-serif; font-weight:bold; white-space:pre;">
<tspan x="-138.98" y="30" dominant-baseline="ideographic">Integra Token Ecosystem</tspan>
</text>
</g>
</g>
</g>
<g id="g-root-tx_integrat_1upwwxwu1qyo0-stroke" data-item-order="0" transform="translate(190.78863525390625, 38.0)"></g>
<g id="g-root-tx_dapptoke_v7cvycu1qz2f-fill" data-item-order="0" transform="translate(61.77301025390625, 128.0)">
<g id="tx_dapptoke_v7cvycu1qz2f-fill-merged" stroke="none" fill="#92bd39" fill-opacity="1.0">
<g>
<text transform="translate(10.0, 10.0)" style="font-size:20px; font-family:'Roboto', sans-serif; white-space:pre;">
<tspan x="2" y="24" dominant-baseline="ideographic">dApp Token Adaptation</tspan>
</text>
</g>
</g>
</g>
<g id="g-root-tx_dapptoke_v7cvycu1qz2f-stroke" data-item-order="0" transform="translate(61.77301025390625, 128.0)"></g>
<g id="g-root-tx_tokensel_qrjdtwu1qz9q-fill" data-item-order="0" transform="translate(61.77301025390625, 164.0)">
<g id="tx_tokensel_qrjdtwu1qz9q-fill-merged" stroke="none" fill="#484848" fill-opacity="1.0">
<g>
<text transform="translate(10.0, 7.0)" style="font-size:15px; font-family:'Roboto', sans-serif; white-space:pre;">
<tspan x="2" y="21" dominant-baseline="ideographic">Token selection varies by dApp category</tspan>
</text>
</g>
</g>
</g>
<g id="g-root-tx_tokensel_qrjdtwu1qz9q-stroke" data-item-order="0" transform="translate(61.77301025390625, 164.0)"></g>
<g id="g-root-ic_bloc_1upwwxwu1qzgp-fill" data-item-order="0" transform="translate(14.0, 122.0)"></g>
<g id="g-root-ic_bloc_1upwwxwu1qzgp-stroke" data-item-order="0" transform="translate(14.0, 122.0)">
<g id="ic_bloc_1upwwxwu1qzgp-stroke" fill="none" stroke-linecap="round" stroke-linejoin="round" stroke-miterlimit="4" stroke="#92bd39" stroke-width="2" stroke-opacity="1.0">
<g>
<path d="M 21.625 31.900002C 21.625 32.799999 21.025 33.400002 20.125 33.400002L 12.625 33.400002C 11.725 33.400002 11.125 32.799999 11.125 31.900002L 11.125 23.5C 11.125 22.599998 11.725 22 12.625 22L 20.125 22C 21.025 22 21.625 22.599998 21.625 23.5L 21.625 31.900002ZM 36.625 31.900002C 36.625 32.799999 36.025002 33.400002 35.125 33.400002L 27.625 33.400002C 26.724998 33.400002 26.125 32.799999 26.125 31.900002L 26.125 23.5C 26.125 22.599998 26.724998 22 27.625 22L 35.125 22C 36.025002 22 36.625 22.599998 36.625 23.5L 36.625 31.900002ZM 15.324895 17.349985C 18.324896 13.749985 22.824881 11.5 27.92485 11.5C 32.72485 11.5 37.074852 13.6 40.074852 16.75M 41.275002 37.75C 38.275002 41.800003 33.474998 44.5 28.075001 44.5C 22.67503 44.5 17.875 41.800003 14.875 37.75M 21.625 27.69985L 26.125 27.69985M 36.625 27.69985L 44.875 27.69985L 41.875 24.699894M 10 10M 44.875 27.69985L 41.875 30.69985M 16.375046 29.3545C 17.288845 29.3545 18.029634 28.6138 18.029634 27.700001C 18.029634 26.7862 17.288845 26.045351 16.375046 26.045351C 15.461245 26.045351 14.720455 26.7862 14.720455 27.700001C 14.720455 28.6138 15.461245 29.3545 16.375046 29.3545ZM 31.375 29.3545C 32.288799 29.3545 33.029648 28.6138 33.029648 27.700001C 33.029648 26.7862 32.288799 26.045351 31.375 26.045351C 30.461201 26.045351 29.720501 26.7862 29.720501 27.700001C 29.720501 28.6138 30.461201 29.3545 31.375 29.3545Z"></path>
</g>
</g>
</g>
<g id="g-root-tx_wirlwrap_dkg72cu1qz2e-fill" data-item-order="0" transform="translate(61.77301025390625, 224.0)">
<g id="tx_wirlwrap_dkg72cu1qz2e-fill-merged" stroke="none" fill="#1eabda" fill-opacity="1.0">
<g>
<text transform="translate(10.0, 10.0)" style="font-size:20px; font-family:'Roboto', sans-serif; white-space:pre;">
<tspan x="2" y="24" dominant-baseline="ideographic">WIRL Wrapped Token</tspan>
</text>
</g>
</g>
</g>
<g id="g-root-tx_wirlwrap_dkg72cu1qz2e-stroke" data-item-order="0" transform="translate(61.77301025390625, 224.0)"></g>
<g id="g-root-tx_wrappedi_1d3081wu1qz9i-fill" data-item-order="0" transform="translate(61.77301025390625, 260.0)">
<g id="tx_wrappedi_1d3081wu1qz9i-fill-merged" stroke="none" fill="#484848" fill-opacity="1.0">
<g>
<text transform="translate(10.0, 10.0)" style="font-size:15px; font-family:'Roboto', sans-serif; white-space:pre;">
<tspan x="2" y="18" dominant-baseline="ideographic">Wrapped IRL for ERC-20 compatibility</tspan>
</text>
</g>
</g>
</g>
<g id="g-root-tx_wrappedi_1d3081wu1qz9i-stroke" data-item-order="0" transform="translate(61.77301025390625, 260.0)"></g>
<g id="g-root-ic_code_dl2o5gu1qwi2-fill" data-item-order="0" transform="translate(14.0, 218.0)"></g>
<g id="g-root-ic_code_dl2o5gu1qwi2-stroke" data-item-order="0" transform="translate(14.0, 218.0)">
<g id="ic_code_dl2o5gu1qwi2-stroke" fill="none" stroke-linecap="round" stroke-linejoin="round" stroke-miterlimit="4" stroke="#1eabda" stroke-width="2" stroke-opacity="1.0">
<g>
<path d="M 10.75 28C 10.75 37.526913 18.473087 45.25 28 45.25C 37.526913 45.25 45.25 37.526913 45.25 28C 45.25 18.473087 37.526913 10.75 28 10.75C 18.473087 10.75 10.75 18.473087 10.75 28M 28 17.125L 17.5 24.25L 28 31.375L 38.5 24.25L 28 17.125ZM 28 38.875L 17.5 31.75L 28 24.625L 38.5 31.75L 28 38.875ZM 17.5 24.25L 17.5 31.75M 38.5 24.25L 38.5 31.75M 28 24.625L 28 17.125M 28 31.375L 28 38.875"></path>
</g>
</g>
</g>
<g id="g-root-tx_tusdista_3zw04u1tq13-fill" data-item-order="0" transform="translate(61.77301025390625, 314.0)">
<g id="tx_tusdista_3zw04u1tq13-fill-merged" stroke="none" fill="#4e88e7" fill-opacity="1.0">
<g>
<text transform="translate(10.0, 10.0)" style="font-size:20px; font-family:'Roboto', sans-serif; white-space:pre;">
<tspan x="2" y="24" dominant-baseline="ideographic">tUSDI Stablecoin</tspan>
</text>
</g>
</g>
</g>
<g id="g-root-tx_tusdista_3zw04u1tq13-stroke" data-item-order="0" transform="translate(61.77301025390625, 314.0)"></g>
<g id="g-root-tx_erc20sta_142df44u1tq8d-fill" data-item-order="0" transform="translate(61.77301025390625, 350.0)">
<g id="tx_erc20sta_142df44u1tq8d-fill-merged" stroke="none" fill="#484848" fill-opacity="1.0">
<g>
<text transform="translate(10.0, 10.0)" style="font-size:15px; font-family:'Roboto', sans-serif; white-space:pre;">
<tspan x="2" y="18" dominant-baseline="ideographic">ERC-20 stablecoin for trading and payments</tspan>
</text>
</g>
</g>
</g>
<g id="g-root-tx_erc20sta_142df44u1tq8d-stroke" data-item-order="0" transform="translate(61.77301025390625, 350.0)"></g>
<g id="g-root-ic_nem_mb3emcu1tqmg-fill" data-item-order="0" transform="translate(14.0, 308.0)"></g>
<g id="g-root-ic_nem_mb3emcu1tqmg-stroke" data-item-order="0" transform="translate(14.0, 308.0)">
<g id="ic_nem_mb3emcu1tqmg-stroke" fill="none" stroke-linecap="round" stroke-linejoin="round" stroke-miterlimit="4" stroke="#4e88e7" stroke-width="2" stroke-opacity="1.0">
<g>
<path d="M 10.75 28C 10.75 37.526913 18.473087 45.25 28 45.25C 37.526913 45.25 45.25 37.526913 45.25 28C 45.25 18.473087 37.526913 10.75 28 10.75C 18.473087 10.75 10.75 18.473087 10.75 28M 37.088501 21.351999C 37.082497 28.051382 33.654713 34.283508 27.999998 37.875999C 22.345284 34.283508 18.917501 28.051382 18.911499 21.351999C 21.390999 18.047501 34.609001 18.047501 37.088501 21.351999ZM 26.635 28.808498C 27.552687 28.643185 28.48966 28.613367 29.416 28.720001C 28.813488 28.008369 28.319174 27.211807 27.948999 26.355999C 27.633602 27.233498 27.190865 28.059839 26.635 28.808498ZM 29.416 28.719999C 31.314119 28.945704 33.101013 29.735176 34.546001 30.9865M 27.948999 26.349998C 26.925066 23.969879 26.914776 21.27537 27.9205 18.887499M 26.635 28.809999C 25.497368 30.333858 23.930336 31.483013 22.135 32.110001"></path>
</g>
</g>
</g>
<g id="g-root-tx_irltoken_zofc90u1v4zs-fill" data-item-order="0" transform="translate(61.77301025390625, 404.0)">
<g id="tx_irltoken_zofc90u1v4zs-fill-merged" stroke="none" fill="#3cc583" fill-opacity="1.0">
<g>
<text transform="translate(10.0, 10.0)" style="font-size:20px; font-family:'Roboto', sans-serif; white-space:pre;">
<tspan x="2" y="24" dominant-baseline="ideographic">IRL Token</tspan>
</text>
</g>
</g>
</g>
<g id="g-root-tx_irltoken_zofc90u1v4zs-stroke" data-item-order="0" transform="translate(61.77301025390625, 404.0)"></g>
<g id="g-root-tx_nativega_hx5br8u1v5dv-fill" data-item-order="0" transform="translate(61.77301025390625, 440.0)">
<g id="tx_nativega_hx5br8u1v5dv-fill-merged" stroke="none" fill="#484848" fill-opacity="1.0">
<g>
<text transform="translate(10.0, 10.0)" style="font-size:15px; font-family:'Roboto', sans-serif; white-space:pre;">
<tspan x="2" y="18" dominant-baseline="ideographic">Native gas token for fees and staking</tspan>
</text>
</g>
</g>
</g>
<g id="g-root-tx_nativega_hx5br8u1v5dv-stroke" data-item-order="0" transform="translate(61.77301025390625, 440.0)"></g>
<g id="g-root-ic_eart_1czvumcu1v5kx-fill" data-item-order="0" transform="translate(14.0, 398.0)"></g>
<g id="g-root-ic_eart_1czvumcu1v5kx-stroke" data-item-order="0" transform="translate(14.0, 398.0)">
<g id="ic_eart_1czvumcu1v5kx-stroke" fill="none" stroke-linecap="round" stroke-linejoin="round" stroke-miterlimit="4" stroke="#3cc583" stroke-width="2" stroke-opacity="1.0">
<g>
<path d="M 10.75 28C 10.75 37.526913 18.473087 45.25 28 45.25C 37.526913 45.25 45.25 37.526913 45.25 28C 45.25 18.473087 37.526913 10.75 28 10.75C 18.473087 10.75 10.75 18.473087 10.75 28M 38.454998 32.919998C 38.185734 25.989435 34.602264 19.610512 28.8235 15.775C 28.322901 15.44533 27.674099 15.44533 27.1735 15.775C 21.397923 19.613075 17.816271 25.990747 17.545 32.920002C 17.524845 33.454254 17.790573 33.958851 18.2425 34.244499C 24.228743 37.918472 31.771259 37.918472 37.7575 34.244499C 38.209427 33.958851 38.475155 33.454254 38.454998 32.919998ZM 23.7325 30.849998C 23.733376 27.760635 25.352751 24.89756 28 23.305C 30.647911 24.896915 32.267517 27.760399 32.267498 30.849998C 29.69157 32.599857 26.308434 32.599857 23.732502 30.85ZM 17.722 33.686501L 23.7325 30.853001M 32.267502 30.853001L 38.278 33.685001M 28 15.5275L 28 23.305"></path>
</g>
</g>
</g>
</g>
</g>
</svg>