<?xml version="1.0" encoding="utf-8" standalone="yes"?>
<!DOCTYPE svg PUBLIC "-//W3C//DTD SVG 1.1//EN" "http://www.w3.org/Graphics/SVG/1.1/DTD/svg11.dtd">
<svg version="1.1" xmlns="http://www.w3.org/2000/svg" xmlns:xlink="http://www.w3.org/1999/xlink" width="443" height="1190" viewBox="0 0 443 1190" style="fill:none; stroke:none; fill-rule:evenodd; clip-rule:evenodd; stroke-linecap:round; stroke-linejoin:round; stroke-miterlimit:1.5;">
<style class="text-font-style fontImports" data-font-family="Roboto">
@import url(https://fonts.googleapis.com/css2?family=Roboto:wght@400;700&amp;display=block);
</style>
<style class="text-font-style">
@import url(https://app.napkin.ai/fonts/font-face.web.napkin-fallback.css);
@import url(https://app.napkin.ai/fonts/font-face.web.shantell-sans.css);
@import url(https://app.napkin.ai/fonts/font-face.web.roboto.css);
</style>
<g id="items" style="isolation:isolate;">
<g id="blend" style="mix-blend-mode:normal;">
<g id="g-root-ro_4mbzr8trlpfx-fill" data-item-order="0" transform="translate(120.328125, 116.0)"></g>
<g id="g-root-ro_4mbzr8trlpfx-stroke" data-item-order="0" transform="translate(120.328125, 116.0)">
<g id="ro_4mbzr8trlpfx-stroke" fill="none" stroke-linecap="round" stroke-linejoin="round" stroke-miterlimit="4" stroke="#969696" stroke-width="2" stroke-opacity="1.0">
<g>
<path d="M 22 10L 179.39 10C 179.39 10 191.39 10 191.39 22L 191.39 70C 191.39 70 191.39 82 179.39 82L 22 82C 22 82 10 82 10 70L 10 22C 10 22 10 10 22 10"></path>
</g>
</g>
</g>
<g id="g-root-tx_shapedap_1uuaxtwtroiyt-fill" data-item-order="0" transform="translate(170.90625, 256.0)">
<g id="tx_shapedap_1uuaxtwtroiyt-fill-merged" stroke="none" fill="#1eabda" fill-opacity="1.0">
<g>
<text transform="translate(10.0, 22.0)" style="font-size:20px; font-family:'Roboto', napkin-fallback, sans-serif; white-space:pre;">
<tspan x="2" y="12" dominant-baseline="ideographic">Shape dApp </tspan>
<tspan x="2" y="36" dominant-baseline="ideographic">Idea</tspan>
</text>
</g>
</g>
</g>
<g id="g-root-tx_shapedap_1uuaxtwtroiyt-stroke" data-item-order="0" transform="translate(170.90625, 256.0)"></g>
<g id="g-root-ic_1_90dz8trojd8-fill" data-item-order="0" transform="translate(134.90625, 265.0)"></g>
<g id="g-root-ic_1_90dz8trojd8-stroke" data-item-order="0" transform="translate(134.90625, 265.0)">
<g id="ic_1_90dz8trojd8-stroke" fill="none" stroke-linecap="round" stroke-linejoin="round" stroke-miterlimit="4" stroke="#1eabda" stroke-width="2" stroke-opacity="1.0">
<g>
<path d="M 23.125 35.625L 26.875 35.625M 23.125 38.125L 26.875 38.125M 25 38.125L 25 39.375M 32.33625 25.055C 32.220535 21.117065 28.938137 18.016432 25 18.125C 21.061596 18.015736 17.778784 21.11676 17.66375 25.055C 17.797661 28.242243 20.025034 30.955978 23.125 31.708748L 23.125 33.125L 26.875 33.125L 26.875 31.708752C 29.974964 30.955978 32.202339 28.242243 32.33625 25.055ZM 19.014999 34.903751L 17.5 35.625C 16.603683 36.054737 15.533745 35.871998 14.830873 35.169128C 14.127999 34.466255 13.94526 33.396317 14.375 32.499996L 15.095 30.983751C 15.379869 30.384972 15.397624 29.693516 15.14386 29.080908C 14.890097 28.468302 14.38859 27.991941 13.76375 27.77L 12.1825 27.2075C 11.247462 26.875626 10.622706 25.99094 10.622706 24.998751C 10.622706 24.006563 11.247462 23.121876 12.1825 22.790001L 13.76375 22.227499C 14.388481 22.005775 14.890016 21.529734 15.144 20.917406C 15.397984 20.30508 15.380633 19.613813 15.09625 19.014999L 14.375 17.5C 13.94526 16.603683 14.127999 15.533745 14.830873 14.830873C 15.533745 14.127999 16.603683 13.94526 17.5 14.375L 19.016251 15.095C 19.614735 15.379492 20.305714 15.397189 20.91798 15.143707C 21.530245 14.890224 22.006502 14.389281 22.228748 13.764999L 22.79125 12.18375C 23.123127 11.248713 24.007813 10.623956 25.000002 10.623956C 25.992188 10.623956 26.876877 11.248713 27.208752 12.18375L 27.77125 13.765C 27.993191 14.38984 28.469551 14.891346 29.082159 15.14511C 29.694765 15.398873 30.386221 15.381119 30.984997 15.09625L 32.5 14.375C 33.396317 13.94526 34.466255 14.127999 35.169128 14.830873C 35.871998 15.533745 36.054737 16.603683 35.624996 17.5L 34.904999 19.016251C 34.620129 19.615026 34.602375 20.306482 34.85614 20.91909C 35.109901 21.531698 35.611408 22.008057 36.236248 22.23L 37.817501 22.7925C 38.752541 23.124374 39.377296 24.009064 39.377296 25.001251C 39.377296 25.993439 38.752541 26.878126 37.817501 27.210001L 36.236252 27.772501C 35.611408 27.994442 35.109901 28.4708 34.85614 29.083408C 34.602375 29.696016 34.620129 30.387474 34.904999 30.98625L 35.625 32.5C 36.054737 33.396317 35.871998 34.466255 35.169128 35.169128C 34.466255 35.871998 33.396317 36.054737 32.499996 35.624996L 30.983751 34.904999"></path>
</g>
</g>
</g>
<g id="g-root-ro_4otw3otrojk9-fill" data-item-order="0" transform="translate(122.90625, 244.0)"></g>
<g id="g-root-ro_4otw3otrojk9-stroke" data-item-order="0" transform="translate(122.90625, 244.0)">
<g id="ro_4otw3otrojk9-stroke" fill="none" stroke-linecap="round" stroke-linejoin="round" stroke-miterlimit="4" stroke="#1eabda" stroke-width="2" stroke-opacity="1.0">
<g>
<path d="M 22 10L 174.23 10C 174.23 10 186.23 10 186.23 22L 186.23 70C 186.23 70 186.23 82 174.23 82L 22 82C 22 82 10 82 10 70L 10 22C 10 22 10 10 22 10"></path>
</g>
</g>
</g>
<g id="g-root-tx_configur_qqxm10trrdhm-fill" data-item-order="0" transform="translate(181.5703125, 384.0)">
<g id="tx_configur_qqxm10trrdhm-fill-merged" stroke="none" fill="#1eabda" fill-opacity="1.0">
<g>
<text transform="translate(10.0, 22.0)" style="font-size:20px; font-family:'Roboto', napkin-fallback, sans-serif; white-space:pre;">
<tspan x="2" y="12" dominant-baseline="ideographic">Configure </tspan>
<tspan x="2" y="36" dominant-baseline="ideographic">Settings</tspan>
</text>
</g>
</g>
</g>
<g id="g-root-tx_configur_qqxm10trrdhm-stroke" data-item-order="0" transform="translate(181.5703125, 384.0)"></g>
<g id="g-root-ic_2_qqxm10trrdoi-fill" data-item-order="0" transform="translate(145.5703125, 393.0)"></g>
<g id="g-root-ic_2_qqxm10trrdoi-stroke" data-item-order="0" transform="translate(145.5703125, 393.0)">
<g id="ic_2_qqxm10trrdoi-stroke" fill="none" stroke-linecap="round" stroke-linejoin="round" stroke-miterlimit="4" stroke="#1eabda" stroke-width="2" stroke-opacity="1.0">
<g>
<path d="M 19.6875 34.187626C 20.3125 34.187626 20.8125 33.937626 21.1875 33.562626C 21.5625 33.187626 21.8125 32.5625 21.8125 32.0625L 21.8125 25.437624C 23.4375 24.687626 24.6875 22.937624 24.6875 20.937561C 24.6875 18.812563 23.4375 17.062563 21.5625 16.312563L 21.5625 16.562563L 21.5625 19.687563C 21.5625 20.687563 20.6875 21.562561 19.6875 21.562561C 18.6875 21.562561 17.8125 20.687563 17.8125 19.687563L 17.8125 16.562563L 17.8125 16.312563C 15.9375 17.062563 14.6875 18.812563 14.6875 20.937561C 14.6875 22.937624 15.8125 24.562624 17.5625 25.437624L 17.5625 32.0625C 17.4375 33.1875 18.4375 34.187626 19.6875 34.187626ZM 10.9375 13.4375C 10.9375 12.0625 12.0625 10.9375 13.4375 10.9375L 36.5625 10.9375C 37.9375 10.9375 39.0625 12.0625 39.0625 13.4375L 39.0625 36.5625C 39.0625 37.9375 37.9375 39.0625 36.5625 39.0625L 13.4375 39.0625C 12.0625 39.0625 10.9375 37.9375 10.9375 36.5625L 10.9375 13.4375ZM 15.9375 28.0625L 23.4375 28.0625M 33.4375 31.8125C 33.4375 33.0625 32.4375 33.9375 31.3125 33.9375C 30.0625 33.9375 29.1875 32.9375 29.1875 31.8125L 29.1875 24.9375L 33.4375 24.9375L 33.4375 31.8125ZM 31.3125 24.9375L 31.3125 16.312563M 27.1875 29.9375L 35.3125 29.9375"></path>
</g>
</g>
</g>
<g id="g-root-ro_18i7mistrrdvv-fill" data-item-order="0" transform="translate(133.5703125, 372.0)"></g>
<g id="g-root-ro_18i7mistrrdvv-stroke" data-item-order="0" transform="translate(133.5703125, 372.0)">
<g id="ro_18i7mistrrdvv-stroke" fill="none" stroke-linecap="round" stroke-linejoin="round" stroke-miterlimit="4" stroke="#1eabda" stroke-width="2" stroke-opacity="1.0">
<g>
<path d="M 22 10L 152.91 10C 152.91 10 164.91 10 164.91 22L 164.91 70C 164.91 70 164.91 82 152.91 82L 22 82C 22 82 10 82 10 70L 10 22C 10 22 10 10 22 10"></path>
</g>
</g>
</g>
<g id="g-root-tx_agentswo_hxsi4ktrsr9q-fill" data-item-order="0" transform="translate(191.2421875, 512.0)">
<g id="tx_agentswo_hxsi4ktrsr9q-fill-merged" stroke="none" fill="#1eabda" fill-opacity="1.0">
<g>
<text transform="translate(10.0, 34.0)" style="font-size:20px; font-family:'Roboto', napkin-fallback, sans-serif; white-space:pre;">
<tspan x="2" y="0" dominant-baseline="ideographic">Agents </tspan>
<tspan x="2" y="24" dominant-baseline="ideographic">Work in </tspan>
<tspan x="2" y="48" dominant-baseline="ideographic">Parallel</tspan>
</text>
</g>
</g>
</g>
<g id="g-root-tx_agentswo_hxsi4ktrsr9q-stroke" data-item-order="0" transform="translate(191.2421875, 512.0)"></g>
<g id="g-root-ic_sett_qtfidgtrsrgt-fill" data-item-order="0" transform="translate(155.2421875, 533.0)"></g>
<g id="g-root-ic_sett_qtfidgtrsrgt-stroke" data-item-order="0" transform="translate(155.2421875, 533.0)">
<g id="ic_sett_qtfidgtrsrgt-stroke" fill="none" stroke-linecap="round" stroke-linejoin="round" stroke-miterlimit="4" stroke="#1eabda" stroke-width="2" stroke-opacity="1.0">
<g>
<path d="M 23.75 26.875C 23.75 27.565357 24.309643 28.125 25 28.125C 25.690357 28.125 26.25 27.565357 26.25 26.875C 26.25 26.184643 25.690357 25.625 25 25.625C 24.309643 25.625 23.75 26.184643 23.75 26.875ZM 26.061251 22.040001L 26.43 23.25C 26.556305 23.667072 26.984037 23.915079 27.408751 23.817499L 28.635 23.532501C 29.112242 23.425325 29.603668 23.641335 29.847391 24.065414C 30.091114 24.489494 30.030357 25.022852 29.6975 25.38125L 28.838751 26.307499C 28.542702 26.627918 28.542702 27.122082 28.838751 27.442501L 29.6975 28.36875C 30.030357 28.72715 30.091114 29.260506 29.847391 29.684586C 29.603668 30.108664 29.112242 30.324677 28.635 30.217499L 27.408751 29.932501C 26.984037 29.834921 26.556305 30.08293 26.43 30.5L 26.061251 31.709999C 25.922625 32.181335 25.490051 32.505009 24.998749 32.505009C 24.50745 32.505009 24.074875 32.181335 23.936251 31.709999L 23.567501 30.5C 23.441193 30.08293 23.013462 29.834921 22.588751 29.932501L 21.362499 30.217499C 20.88526 30.324677 20.393833 30.108664 20.15011 29.684586C 19.906385 29.260506 19.967142 28.72715 20.299999 28.36875L 21.158751 27.442501C 21.4548 27.122082 21.4548 26.627918 21.158751 26.307501L 20.299999 25.38125C 19.967142 25.022852 19.906385 24.489494 20.15011 24.065414C 20.393833 23.641335 20.88526 23.425325 21.362499 23.532501L 22.588751 23.817499C 23.013462 23.915079 23.441193 23.667072 23.567501 23.25L 23.936251 22.040001C 24.074875 21.568663 24.50745 21.244989 24.998749 21.244989C 25.490051 21.244989 25.922625 21.568663 26.061251 22.040001ZM 22.8125 12.8125C 22.812502 14.020623 23.791878 15 25.000002 15C 26.208122 15 27.187502 14.020623 27.187502 12.8125C 27.187502 11.604377 26.208122 10.625 25.000002 10.625C 23.791878 10.625 22.812502 11.604377 22.812502 12.8125ZM 29.375 19.375C 28.865034 17.375114 27.063883 15.975616 25 15.975616C 22.936117 15.975616 21.134966 17.375114 20.625 19.375M 32.8125 32.8125C 32.8125 34.020622 33.791878 35 35 35C 36.208122 35 37.1875 34.020622 37.1875 32.8125C 37.1875 31.604378 36.208122 30.625 35 30.625C 33.791878 30.625 32.8125 31.604378 32.8125 32.8125ZM 39.375 39.375C 38.865036 37.375114 37.063881 35.975616 35 35.975616C 32.936119 35.975616 31.134968 37.375114 30.625 39.375M 12.8125 32.8125C 12.8125 34.020622 13.791878 35 15 35C 16.208122 35 17.1875 34.020622 17.1875 32.8125C 17.1875 31.604378 16.208122 30.625 15 30.625C 13.791878 30.625 12.8125 31.604378 12.8125 32.8125ZM 19.375 39.375C 18.865034 37.375114 17.063881 35.975616 15 35.975616C 12.936118 35.975616 11.134967 37.375114 10.625 39.375M 28.8125 36.25C 26.339087 37.083012 23.660912 37.083012 21.1875 36.25M 30.309999 14.375C 34.945103 16.697439 37.541618 21.754929 36.727501 26.875M 13.2725 26.875C 12.458389 21.754265 15.056127 16.696365 19.692499 14.375"></path>
</g>
</g>
</g>
<g id="g-root-ro_1urt1hgtrsrnz-fill" data-item-order="0" transform="translate(143.2421875, 500.0)"></g>
<g id="g-root-ro_1urt1hgtrsrnz-stroke" data-item-order="0" transform="translate(143.2421875, 500.0)">
<g id="ro_1urt1hgtrsrnz-stroke" fill="none" stroke-linecap="round" stroke-linejoin="round" stroke-miterlimit="4" stroke="#1eabda" stroke-width="2" stroke-opacity="1.0">
<g>
<path d="M 22 10L 133.56 10C 133.56 10 145.56 10 145.56 22L 145.56 94C 145.56 94 145.56 106 133.56 106L 22 106C 22 106 10 106 10 94L 10 22C 10 22 10 10 22 10"></path>
</g>
</g>
</g>
<g id="g-root-tx_reviewan_1uuaxtwtru4n5-fill" data-item-order="0" transform="translate(174.0, 664.0)">
<g id="tx_reviewan_1uuaxtwtru4n5-fill-merged" stroke="none" fill="#1eabda" fill-opacity="1.0">
<g>
<text transform="translate(10.0, 34.0)" style="font-size:20px; font-family:'Roboto', napkin-fallback, sans-serif; white-space:pre;">
<tspan x="2" y="0" dominant-baseline="ideographic">Review and </tspan>
<tspan x="2" y="24" dominant-baseline="ideographic">Approve </tspan>
<tspan x="2" y="48" dominant-baseline="ideographic">Blueprint</tspan>
</text>
</g>
</g>
</g>
<g id="g-root-tx_reviewan_1uuaxtwtru4n5-stroke" data-item-order="0" transform="translate(174.0, 664.0)"></g>
<g id="g-root-ic_appr_90dz8tru51k-fill" data-item-order="0" transform="translate(138.0, 685.0)"></g>
<g id="g-root-ic_appr_90dz8tru51k-stroke" data-item-order="0" transform="translate(138.0, 685.0)">
<g id="ic_appr_90dz8tru51k-stroke" fill="none" stroke-linecap="round" stroke-linejoin="round" stroke-miterlimit="4" stroke="#1eabda" stroke-width="2" stroke-opacity="1.0">
<g>
<path d="M 20 21.875L 20 15C 20 14.309644 20.559643 13.75 21.25 13.75L 37.5 13.75C 38.190353 13.75 38.75 14.309644 38.75 15L 38.75 37.5C 38.75 38.190353 38.190353 38.75 37.5 38.75L 25.625 38.75M 31.786251 13.125C 31.506546 12.021485 30.513411 11.248671 29.375 11.248671C 28.236589 11.248671 27.243454 12.021485 26.963751 13.125L 24.375 13.125L 24.375 16.875L 34.375 16.875L 34.375 13.125ZM 11.25 31.875C 11.25 35.671959 14.328043 38.75 18.125 38.75C 21.921957 38.75 25 35.671959 25 31.875C 25 28.078043 21.921957 25.000002 18.125 25.000002C 14.328043 25.000002 11.25 28.078043 11.25 31.875M 15.625 32.5L 16.875 34.375L 21.25 30M 24.375 21.25L 34.375 21.25M 27.5 25.625L 34.375 25.625M 30 30L 34.375 30M 30 34.375L 34.375 34.375"></path>
</g>
</g>
</g>
<g id="g-root-ro_94ne84tru58r-fill" data-item-order="0" transform="translate(126.0, 652.0)"></g>
<g id="g-root-ro_94ne84tru58r-stroke" data-item-order="0" transform="translate(126.0, 652.0)">
<g id="ro_94ne84tru58r-stroke" fill="none" stroke-linecap="round" stroke-linejoin="round" stroke-miterlimit="4" stroke="#1eabda" stroke-width="2" stroke-opacity="1.0">
<g>
<path d="M 22 10L 168.05 10C 168.05 10 180.05 10 180.05 22L 180.05 94C 180.05 94 180.05 106 168.05 106L 22 106C 22 106 10 106 10 94L 10 22C 10 22 10 10 22 10"></path>
</g>
</g>
</g>
<g id="g-root-tx_phasebyp_1ulkds4trbx1o-fill" data-item-order="0" transform="translate(174.59375, 816.0)">
<g id="tx_phasebyp_1ulkds4trbx1o-fill-merged" stroke="none" fill="#1eabda" fill-opacity="1.0">
<g>
<text transform="translate(10.0, 22.0)" style="font-size:20px; font-family:'Roboto', napkin-fallback, sans-serif; white-space:pre;">
<tspan x="2" y="12" dominant-baseline="ideographic">Phase-by-</tspan>
<tspan x="2" y="36" dominant-baseline="ideographic">Phase Build</tspan>
</text>
</g>
</g>
</g>
<g id="g-root-tx_phasebyp_1ulkds4trbx1o-stroke" data-item-order="0" transform="translate(174.59375, 816.0)"></g>
<g id="g-root-ic_1_1lw618ktrlp1r-fill" data-item-order="0" transform="translate(132.328125, 137.0)"></g>
<g id="g-root-ic_1_1lw618ktrlp1r-stroke" data-item-order="0" transform="translate(132.328125, 137.0)">
<g id="ic_1_1lw618ktrlp1r-stroke" fill="none" stroke-linecap="round" stroke-linejoin="round" stroke-miterlimit="4" stroke="#969696" stroke-width="2" stroke-opacity="1.0">
<g>
<path d="M 39.375 21.875C 39.375 22.565357 38.815353 23.125 38.125 23.125L 31.25 23.125L 26.875 26.875L 26.875 23.125L 25.625 23.125C 24.934643 23.125 24.375 22.565357 24.375 21.875L 24.375 11.875C 24.375 11.184644 24.934643 10.625 25.625 10.625L 38.125 10.625C 38.815353 10.625 39.375 11.184644 39.375 11.875ZM 25 39.375L 20.625 37.5L 20.625 35C 20.625 35 21.7075 34.5625 21.7075 31.875C 22.5625 31.875 22.887501 29.375 21.69875 29.375C 22.212313 28.650198 22.410706 27.748417 22.248751 26.875C 21.635 24.375 15.585 24.375 14.97125 26.875C 12.38875 26.3375 14.44375 29.014999 14.44375 29.375C 13.2175 29.375 13.2175 31.875 14.44375 31.875C 14.44375 34.5625 15.625 35 15.625 35L 15.625 37.5L 11.25 39.375M 28.125 13.75L 30.625 16.25L 28.125 18.75M 31.875 18.125L 36.875 18.125"></path>
</g>
</g>
</g>
<g id="g-root-ro_m7dcjotrbxmy-fill" data-item-order="0" transform="translate(126.59375, 804.0)"></g>
<g id="g-root-ro_m7dcjotrbxmy-stroke" data-item-order="0" transform="translate(126.59375, 804.0)">
<g id="ro_m7dcjotrbxmy-stroke" fill="none" stroke-linecap="round" stroke-linejoin="round" stroke-miterlimit="4" stroke="#1eabda" stroke-width="2" stroke-opacity="1.0">
<g>
<path d="M 22 10L 166.86 10C 166.86 10 178.86 10 178.86 22L 178.86 70C 178.86 70 178.86 82 166.86 82L 22 82C 22 82 10 82 10 70L 10 22C 10 22 10 10 22 10"></path>
</g>
</g>
</g>
<g id="g-root-tx_sixcheck_1is3otrdc05-fill" data-item-order="0" transform="translate(180.859375, 944.0)">
<g id="tx_sixcheck_1is3otrdc05-fill-merged" stroke="none" fill="#1eabda" fill-opacity="1.0">
<g>
<text transform="translate(10.0, 22.0)" style="font-size:20px; font-family:'Roboto', napkin-fallback, sans-serif; white-space:pre;">
<tspan x="2" y="12" dominant-baseline="ideographic">Six-Check </tspan>
<tspan x="2" y="36" dominant-baseline="ideographic">Review</tspan>
</text>
</g>
</g>
</g>
<g id="g-root-tx_sixcheck_1is3otrdc05-stroke" data-item-order="0" transform="translate(180.859375, 944.0)"></g>
<g id="g-root-ic_2_1q6zttwtrdc0e-fill" data-item-order="0" transform="translate(144.859375, 953.0)"></g>
<g id="g-root-ic_2_1q6zttwtrdc0e-stroke" data-item-order="0" transform="translate(144.859375, 953.0)">
<g id="ic_2_1q6zttwtrdc0e-stroke" fill="none" stroke-linecap="round" stroke-linejoin="round" stroke-miterlimit="4" stroke="#1eabda" stroke-width="2" stroke-opacity="1.0">
<g>
<path d="M 25.312374 30.1875C 30.628126 30.1875 34.937374 25.87825 34.937374 20.5625C 34.937374 15.24675 30.628126 10.9375 25.312374 10.9375C 19.996662 10.9375 15.687412 15.24675 15.687412 20.5625C 15.687412 25.87825 19.996662 30.1875 25.312374 30.1875ZM 10 10M 39.062378 34.312748L 32.062374 27.43775M 13.4375 14.6875C 12.0625 14.6875 10.9375 15.8125 10.9375 17.1875L 10.9375 36.5625C 10.9375 37.9375 12.0625 39.0625 13.4375 39.0625L 25.9375 39.0625C 27.3125 39.0625 28.4375 37.9375 28.4375 36.5625L 28.4375 33.4375M 22.8125 14.6875L 25.9375 14.6875C 27.3125 14.6875 28.4375 15.8125 28.4375 17.1875L 28.4375 25.3125M 19.437412 22.1875L 23.812374 22.1875M 20.062412 18.4375L 23.812374 18.4375M 22.562374 25.9375L 23.812374 25.9375"></path>
</g>
</g>
</g>
<g id="g-root-ro_1umtbyctrdc7a-fill" data-item-order="0" transform="translate(132.859375, 932.0)"></g>
<g id="g-root-ro_1umtbyctrdc7a-stroke" data-item-order="0" transform="translate(132.859375, 932.0)">
<g id="ro_1umtbyctrdc7a-stroke" fill="none" stroke-linecap="round" stroke-linejoin="round" stroke-miterlimit="4" stroke="#1eabda" stroke-width="2" stroke-opacity="1.0">
<g>
<path d="M 22 10L 154.33 10C 154.33 10 166.33 10 166.33 22L 166.33 70C 166.33 70 166.33 82 154.33 82L 22 82C 22 82 10 82 10 70L 10 22C 10 22 10 10 22 10"></path>
</g>
</g>
</g>
<g id="g-root-tx_deployto_1uo2a4ktrhk3n-fill" data-item-order="0" transform="translate(182.9375, 1072.0)">
<g id="tx_deployto_1uo2a4ktrhk3n-fill-merged" stroke="none" fill="#1eabda" fill-opacity="1.0">
<g>
<text transform="translate(10.0, 22.0)" style="font-size:20px; font-family:'Roboto', napkin-fallback, sans-serif; white-space:pre;">
<tspan x="2" y="12" dominant-baseline="ideographic">Deploy to </tspan>
<tspan x="2" y="36" dominant-baseline="ideographic">Integra</tspan>
</text>
</g>
</g>
</g>
<g id="g-root-tx_deployto_1uo2a4ktrhk3n-stroke" data-item-order="0" transform="translate(182.9375, 1072.0)"></g>
<g id="g-root-ic_box_141rqh0trhhcc-fill" data-item-order="0" transform="translate(146.9375, 1081.0)"></g>
<g id="g-root-ic_box_141rqh0trhhcc-stroke" data-item-order="0" transform="translate(146.9375, 1081.0)">
<g id="ic_box_141rqh0trhhcc-stroke" fill="none" stroke-linecap="round" stroke-linejoin="round" stroke-miterlimit="4" stroke="#1eabda" stroke-width="2" stroke-opacity="1.0">
<g>
<path d="M 11.25 32.658752L 25 36.408752M 25 36.408752L 38.75 32.658752M 11.25 32.658752L 18.116249 30.860001M 11.25 38.360001L 11.25 32.815002M 38.75 32.815002L 38.75 38.360001M 25 38.985001L 25 36.408752M 29.375 17.577499C 29.375 19.99375 28.64625 26.327499 25 26.327499C 21.35375 26.327499 20.625 20 20.625 17.577499C 20.625 13.2025 25 11.015 25 11.015C 25 11.015 29.375 13.2025 29.375 17.577499ZM 23.283751 17.421249C 23.283545 18.369253 24.051994 19.137873 25 19.137873C 25.948004 19.137873 26.716455 18.369253 26.716249 17.421249C 26.716455 16.473246 25.948004 15.704628 25 15.704628C 24.051994 15.704628 23.283545 16.473246 23.283751 17.421249M 22.10375 25.20125L 21.09375 25.7075C 20.522682 26.010622 19.999535 26.396454 19.541248 26.852499C 19.316961 27.093063 18.970203 27.17551 18.661642 27.061644C 18.353081 26.947777 18.143005 26.659842 18.12875 26.331249C 17.908663 24.40729 18.984695 22.568918 20.77 21.81875M 27.89625 25.20125L 28.90625 25.7075C 29.477316 26.010622 30.000465 26.396454 30.458748 26.852499C 30.683039 27.093063 31.029797 27.17551 31.338356 27.061644C 31.646917 26.947777 31.856995 26.659842 31.87125 26.331249C 32.091339 24.40729 31.015305 22.568918 29.230001 21.81875M 38.75 32.658752L 31.883751 30.860001M 26.75 30.008751C 26.75 30.975 25.966249 33.3125 25 33.3125C 24.033751 33.3125 23.25 30.975 23.25 30.008751C 23.25 29.042252 24.033503 28.258751 25 28.258751C 25.966499 28.258751 26.75 29.042252 26.75 30.008751Z"></path>
</g>
</g>
</g>
<g id="g-root-ro_1uoor7otrhhjh-fill" data-item-order="0" transform="translate(134.9375, 1060.0)"></g>
<g id="g-root-ro_1uoor7otrhhjh-stroke" data-item-order="0" transform="translate(134.9375, 1060.0)">
<g id="ro_1uoor7otrhhjh-stroke" fill="none" stroke-linecap="round" stroke-linejoin="round" stroke-miterlimit="4" stroke="#1eabda" stroke-width="2" stroke-opacity="1.0">
<g>
<path d="M 22 10L 150.17 10C 150.17 10 162.17 10 162.17 22L 162.17 70C 162.17 70 162.17 82 150.17 82L 22 82C 22 82 10 82 10 70L 10 22C 10 22 10 10 22 10"></path>
</g>
</g>
</g>
<g id="g-root-ic_2_9txgtrbxfy-fill" data-item-order="0" transform="translate(138.59375, 825.0)"></g>
<g id="g-root-ic_2_9txgtrbxfy-stroke" data-item-order="0" transform="translate(138.59375, 825.0)">
<g id="ic_2_9txgtrbxfy-stroke" fill="none" stroke-linecap="round" stroke-linejoin="round" stroke-miterlimit="4" stroke="#1eabda" stroke-width="2" stroke-opacity="1.0">
<g>
<path d="M 10 10M 28.187374 16.0625L 25.062374 17.8125L 21.937412 16.0625L 21.937412 12.6875L 25.062374 10.9375L 28.187374 12.6875L 28.187374 16.0625ZM 25.062374 17.8125L 25.062374 22.561625M 24.712376 17.617188L 15.687412 22.562374M 25.35775 17.643436L 34.4375 22.561625M 10 10M 34.437374 22.56225L 25.062374 27.81225L 15.687412 22.56225M 10 10M 21.293427 25.69825L 15.687488 28.812626M 10 10M 28.832375 25.69825L 34.4375 28.81225M 10 10M 34.4375 28.81225L 25.0625 34.062248L 15.687488 28.81225M 10 10M 25.062374 34.0625L 25.062374 39.061749M 10 10M 25.062374 27.8125L 25.062374 29.936501M 10 10M 28.6875 37.061501L 37.8125 31.936501L 37.8125 27.436501M 12.1875 27.436501L 12.1875 31.936501L 21.3125 37.061501M 10 10M 18.0625 14.812013L 12.1875 18.062025L 12.1875 22.437025M 37.812378 22.4375L 37.812378 18.0625L 31.937374 14.6875"></path>
</g>
</g>
</g>
<g id="g-root-tx_integrad_mahpz8trhjpj-fill" data-item-order="0" transform="translate(14.0, 38.0)">
<g id="tx_integrad_mahpz8trhjpj-fill-merged" stroke="none" fill="#484848" fill-opacity="1.0">
<g>
<text transform="translate(205.0234375, 10.0)" style="font-size:25px; font-family:'Roboto', napkin-fallback, sans-serif; font-weight:bold; white-space:pre;">
<tspan x="-193.02" y="30" dominant-baseline="ideographic">Integra Developer Studio Workflow</tspan>
</text>
</g>
</g>
</g>
<g id="g-root-tx_integrad_mahpz8trhjpj-stroke" data-item-order="0" transform="translate(14.0, 38.0)"></g>
<g id="g-root-tx_startcon_1urt1hgtrlouj-fill" data-item-order="0" transform="translate(168.328125, 128.0)">
<g id="tx_startcon_1urt1hgtrlouj-fill-merged" stroke="none" fill="#969696" fill-opacity="1.0">
<g>
<text transform="translate(10.0, 22.0)" style="font-size:20px; font-family:'Roboto', napkin-fallback, sans-serif; white-space:pre;">
<tspan x="2" y="12" dominant-baseline="ideographic">Start </tspan>
<tspan x="2" y="36" dominant-baseline="ideographic">Conversation</tspan>
</text>
</g>
</g>
</g>
<g id="g-root-tx_startcon_1urt1hgtrlouj-stroke" data-item-order="0" transform="translate(168.328125, 128.0)"></g>
<g id="g-root-cu_8z17lwtrhj42-fill" data-item-order="2" transform="translate(211.0234375, 188.0)"></g>
<g id="g-root-cu_8z17lwtrhj42-stroke" data-item-order="2" transform="translate(211.0234375, 188.0)">
<g id="cu_8z17lwtrhj42-stroke" fill="none" stroke-linecap="round" stroke-linejoin="round" stroke-miterlimit="4" stroke="#484848" stroke-width="2" stroke-opacity="1.0">
<g>
<path d="M 10.004688 10L 10.004688 38L 10.004688 64"></path>
<path d="M 3.504688 58L 10.004688 64.5L 16.504688 58" stroke-dasharray="none"></path>
</g>
</g>
</g>
<g id="g-root-cu_zly8cktrhj4d-fill" data-item-order="2" transform="translate(211.0234375, 316.0)"></g>
<g id="g-root-cu_zly8cktrhj4d-stroke" data-item-order="2" transform="translate(211.0234375, 316.0)">
<g id="cu_zly8cktrhj4d-stroke" fill="none" stroke-linecap="round" stroke-linejoin="round" stroke-miterlimit="4" stroke="#484848" stroke-width="2" stroke-opacity="1.0">
<g>
<path d="M 10.004688 10L 10.004688 38L 10.004688 64"></path>
<path d="M 3.504688 58L 10.004688 64.5L 16.504688 58" stroke-dasharray="none"></path>
</g>
</g>
</g>
<g id="g-root-cu_1q8v938trhj4a-fill" data-item-order="2" transform="translate(211.0234375, 444.0)"></g>
<g id="g-root-cu_1q8v938trhj4a-stroke" data-item-order="2" transform="translate(211.0234375, 444.0)">
<g id="cu_1q8v938trhj4a-stroke" fill="none" stroke-linecap="round" stroke-linejoin="round" stroke-miterlimit="4" stroke="#484848" stroke-width="2" stroke-opacity="1.0">
<g>
<path d="M 10.004688 10L 10.004688 38L 10.004688 64"></path>
<path d="M 3.504688 58L 10.004688 64.5L 16.504688 58" stroke-dasharray="none"></path>
</g>
</g>
</g>
<g id="g-root-cu_huo7ustrhjb7-fill" data-item-order="2" transform="translate(211.0234375, 596.0)"></g>
<g id="g-root-cu_huo7ustrhjb7-stroke" data-item-order="2" transform="translate(211.0234375, 596.0)">
<g id="cu_huo7ustrhjb7-stroke" fill="none" stroke-linecap="round" stroke-linejoin="round" stroke-miterlimit="4" stroke="#484848" stroke-width="2" stroke-opacity="1.0">
<g>
<path d="M 10.004688 10L 10.004688 38L 10.004688 64"></path>
<path d="M 3.504688 58L 10.004688 64.5L 16.504688 58" stroke-dasharray="none"></path>
</g>
</g>
</g>
<g id="g-root-cu_141rqh0trhjbf-fill" data-item-order="2" transform="translate(211.0234375, 748.0)"></g>
<g id="g-root-cu_141rqh0trhjbf-stroke" data-item-order="2" transform="translate(211.0234375, 748.0)">
<g id="cu_141rqh0trhjbf-stroke" fill="none" stroke-linecap="round" stroke-linejoin="round" stroke-miterlimit="4" stroke="#484848" stroke-width="2" stroke-opacity="1.0">
<g>
<path d="M 10.004688 10L 10.004688 38L 10.004688 64"></path>
<path d="M 3.504688 58L 10.004688 64.5L 16.504688 58" stroke-dasharray="none"></path>
</g>
</g>
</g>
<g id="g-root-cu_1uoor7otrhjbe-fill" data-item-order="2" transform="translate(211.0234375, 876.0)"></g>
<g id="g-root-cu_1uoor7otrhjbe-stroke" data-item-order="2" transform="translate(211.0234375, 876.0)">
<g id="cu_1uoor7otrhjbe-stroke" fill="none" stroke-linecap="round" stroke-linejoin="round" stroke-miterlimit="4" stroke="#484848" stroke-width="2" stroke-opacity="1.0">
<g>
<path d="M 10.004688 10L 10.004688 38L 10.004688 64"></path>
<path d="M 3.504688 58L 10.004688 64.5L 16.504688 58" stroke-dasharray="none"></path>
</g>
</g>
</g>
<g id="g-root-cu_mahpz8trhji9-fill" data-item-order="2" transform="translate(211.0234375, 1004.0)"></g>
<g id="g-root-cu_mahpz8trhji9-stroke" data-item-order="2" transform="translate(211.0234375, 1004.0)">
<g id="cu_mahpz8trhji9-stroke" fill="none" stroke-linecap="round" stroke-linejoin="round" stroke-miterlimit="4" stroke="#484848" stroke-width="2" stroke-opacity="1.0">
<g>
<path d="M 10.004688 10L 10.004688 38L 10.004688 64"></path>
<path d="M 3.504688 58L 10.004688 64.5L 16.504688 58" stroke-dasharray="none"></path>
</g>
</g>
</g>
</g>
</g>
<path id="w1uqk6h0trhiww" d="M65.283 12.757a.35.35 0 0 0 .584.157l5.203-5.141-6.183 3.523.396 1.461zm-2.216-11.7a.35.35 0 0 0-.522.305v3.111l3.276-1.868-2.754-1.548zm3.728 2.105l-4.25 2.421v2.445l6.391-3.644-2.141-1.222zm4.708 3.303a.35.35 0 0 0 0-.609l-1.592-.9-7.365 4.199v1.782a.35.35 0 0 0 .523.305l8.435-4.777z M44.542 2.513c0-.433.355-.783.792-.783s.792.35.792.783-.355.783-.792.783-.792-.35-.792-.783zm59.171 0c0-.433.355-.783.792-.783s.792.35.792.783-.355.783-.792.783-.792-.35-.792-.783zm-85.951 7.636h-1.27v-.487c-.276.201-.864.609-1.881.609-1.202 0-2.274-.794-2.137-2.078.118-1.106 1.153-1.584 1.848-1.727l2.17-.345c0-.539-.29-.956-1.064-1.006s-1.21.305-1.571 1.017l-1.124-.605c1.218-2.631 5.029-1.764 5.029.414v4.207zm-1.27-2.86c.006.396-.062 1.112-.819 1.59-.587.37-1.841.299-1.903-.395-.049-.555.461-.791.906-.898l1.816-.297zm72.662 2.86h-1.27v-.487c-.276.201-.864.609-1.881.609-1.202 0-2.274-.794-2.137-2.078.118-1.106 1.153-1.584 1.848-1.727l2.17-.345c0-.539-.29-.956-1.064-1.006s-1.21.305-1.571 1.017l-1.124-.605c1.218-2.631 5.029-1.764 5.029.414v4.207zm-1.27-2.86c.006.396-.062 1.112-.82 1.59-.587.37-1.841.299-1.903-.395-.049-.555.461-.791.906-.898l1.816-.297zM99.096 10.149H97.85v-8.45h1.246v4.895l2.68-2.559h1.738l-2.633 2.535 2.715 3.578h-1.556l-2.077-2.707-.867.844v1.863zm6.053-6.114h-1.255v6.113h1.255V4.035zm-59.2 0h-1.255v6.113h1.255V4.035zm5.584 6.113V1.697h1.255v2.695c.361-.346 1-.485 1.47-.485 1.452 0 2.477 1.082 2.457 2.448v3.792h-1.27v-3.68c0-.408-.214-1.339-1.315-1.339-.968 0-1.342.756-1.342 1.339v3.681h-1.255zm-4.76-4.894V4.039h.621a.45.45 0 0 0 .45-.45v-.855h1.251v1.305h1.309v1.215h-1.309v3.109c0 .293.105.664.648.664.365 0 .531-.035.736-.07v1.137s-.361.113-.857.113c-1.398 0-1.777-1.051-1.777-1.788V5.254h-1.071zM36.528 4.039h-1.394l2.191 6.106h1.125l1.234-3.918 1.238 3.918h1.129l2.188-6.106h-1.383l-1.359 3.93-1.256-3.93h-1.124l-1.242 3.957-1.348-3.957zM26.212 7.141c-.02 1.566 1.187 3.129 3.223 3.129 1.566 0 2.383-.918 2.734-1.719L31.172 8c-.315.399-.801 1.094-1.738 1.094-1.145 0-1.825-.781-1.891-1.52h4.625c.074-.284.148-.995-.03-1.559-.336-1.064-1.221-2.102-2.839-2.102s-3.088 1.152-3.088 3.227zm1.363-.75h3.348c-.055-.43-.566-1.301-1.623-1.301a1.79 1.79 0 0 0-1.725 1.301zm-8.758.75c.038 1.758 1.277 3.133 3.145 3.133 1.074 0 1.723-.477 1.961-.672v.547h1.242V1.703h-1.258v2.888c-.414-.36-1.062-.68-1.93-.68-1.91 0-3.198 1.473-3.16 3.23zm1.309-.08c0 1.119.723 1.978 1.836 1.978a1.88 1.88 0 0 0 1.94-1.904c0-1.371-1.011-1.99-1.972-1.99s-1.805.798-1.805 1.916zm76.683-.028C96.771 5.275 95.532 3.9 93.664 3.9c-1.074 0-1.723.477-1.961.672v-.547h-1.242v8.22h1.258V9.583c.414.36 1.063.68 1.93.68 1.91 0 3.198-1.473 3.16-3.23zm-1.309.08c0-1.119-.723-1.978-1.836-1.978a1.88 1.88 0 0 0-1.94 1.904c0 1.371 1.011 1.99 1.972 1.99S95.5 8.231 95.5 7.113zM106.441 10.173V4.036h1.254v.382c.361-.346 1-.485 1.47-.485 1.452 0 2.477 1.082 2.457 2.448v3.792h-1.27V6.492c0-.408-.214-1.339-1.315-1.339-.969 0-1.342.756-1.342 1.339v3.681h-1.254zm-30.383-.021V1.824h1.084l4.215 5.777V1.824h1.32v8.328h-1.094l-4.207-5.796v5.796h-1.319zM5.24 10.149H4V2.377h1.014l2.664 3.597 2.654-3.592h1.03v7.766h-1.256V4.762L7.678 8.068 5.24 4.742v5.407z" transform="translate(17.178314208984375, 1158.8216552734375)" fill="#80808088" stroke="none"></path>
</svg>